<mxfile host="app.diagrams.net" modified="2022-04-01T10:19:09.654Z" agent="5.0 (Windows NT 10.0; Win64; x64) AppleWebKit/537.36 (KHTML, like Gecko) Chrome/100.0.4896.60 Safari/537.36" etag="_zX74uMx4gfZ3cCCK-oU" version="17.2.2" type="github">
  <diagram id="DE3jxx3V9w2Wzjr0yGsT" name="Page-1">
    <mxGraphModel dx="1422" dy="762" grid="0" gridSize="10" guides="1" tooltips="1" connect="1" arrows="1" fold="1" page="1" pageScale="1" pageWidth="850" pageHeight="1100" math="0" shadow="0">
      <root>
        <mxCell id="0" />
        <mxCell id="1" parent="0" />
        <mxCell id="GrOLrULoJyy6WH1Zk0m3-95" value="" style="group" vertex="1" connectable="0" parent="1">
          <mxGeometry x="70" y="60" width="950" height="660" as="geometry" />
        </mxCell>
        <mxCell id="GrOLrULoJyy6WH1Zk0m3-1" value="AWS Cloud" style="points=[[0,0],[0.25,0],[0.5,0],[0.75,0],[1,0],[1,0.25],[1,0.5],[1,0.75],[1,1],[0.75,1],[0.5,1],[0.25,1],[0,1],[0,0.75],[0,0.5],[0,0.25]];outlineConnect=0;gradientColor=none;html=1;whiteSpace=wrap;fontSize=12;fontStyle=0;container=1;pointerEvents=0;collapsible=0;recursiveResize=0;shape=mxgraph.aws4.group;grIcon=mxgraph.aws4.group_aws_cloud;strokeColor=#232F3E;fillColor=none;verticalAlign=top;align=left;spacingLeft=30;fontColor=#232F3E;dashed=0;" vertex="1" parent="GrOLrULoJyy6WH1Zk0m3-95">
          <mxGeometry width="950" height="660" as="geometry" />
        </mxCell>
        <mxCell id="GrOLrULoJyy6WH1Zk0m3-26" value="Kinesis Agent" style="text;html=1;strokeColor=none;fillColor=none;align=center;verticalAlign=middle;whiteSpace=wrap;rounded=0;" vertex="1" parent="GrOLrULoJyy6WH1Zk0m3-1">
          <mxGeometry x="325" y="254.82" width="60" height="30" as="geometry" />
        </mxCell>
        <mxCell id="GrOLrULoJyy6WH1Zk0m3-2" value="VPC" style="points=[[0,0],[0.25,0],[0.5,0],[0.75,0],[1,0],[1,0.25],[1,0.5],[1,0.75],[1,1],[0.75,1],[0.5,1],[0.25,1],[0,1],[0,0.75],[0,0.5],[0,0.25]];outlineConnect=0;gradientColor=none;html=1;whiteSpace=wrap;fontSize=12;fontStyle=0;container=1;pointerEvents=0;collapsible=0;recursiveResize=0;shape=mxgraph.aws4.group;grIcon=mxgraph.aws4.group_vpc;strokeColor=#248814;fillColor=none;verticalAlign=top;align=left;spacingLeft=30;fontColor=#AAB7B8;dashed=0;" vertex="1" parent="GrOLrULoJyy6WH1Zk0m3-95">
          <mxGeometry x="80" y="70" width="220" height="510" as="geometry" />
        </mxCell>
        <mxCell id="GrOLrULoJyy6WH1Zk0m3-3" value="Private subnet" style="points=[[0,0],[0.25,0],[0.5,0],[0.75,0],[1,0],[1,0.25],[1,0.5],[1,0.75],[1,1],[0.75,1],[0.5,1],[0.25,1],[0,1],[0,0.75],[0,0.5],[0,0.25]];outlineConnect=0;gradientColor=none;html=1;whiteSpace=wrap;fontSize=12;fontStyle=0;container=1;pointerEvents=0;collapsible=0;recursiveResize=0;shape=mxgraph.aws4.group;grIcon=mxgraph.aws4.group_security_group;grStroke=0;strokeColor=#147EBA;fillColor=#E6F2F8;verticalAlign=top;align=left;spacingLeft=30;fontColor=#147EBA;dashed=0;" vertex="1" parent="GrOLrULoJyy6WH1Zk0m3-2">
          <mxGeometry x="30" y="30" width="160" height="230" as="geometry" />
        </mxCell>
        <mxCell id="GrOLrULoJyy6WH1Zk0m3-5" value="" style="sketch=0;points=[[0,0,0],[0.25,0,0],[0.5,0,0],[0.75,0,0],[1,0,0],[0,1,0],[0.25,1,0],[0.5,1,0],[0.75,1,0],[1,1,0],[0,0.25,0],[0,0.5,0],[0,0.75,0],[1,0.25,0],[1,0.5,0],[1,0.75,0]];outlineConnect=0;fontColor=#232F3E;gradientColor=#4AB29A;gradientDirection=north;fillColor=#116D5B;strokeColor=#ffffff;dashed=0;verticalLabelPosition=bottom;verticalAlign=top;align=center;html=1;fontSize=12;fontStyle=0;aspect=fixed;shape=mxgraph.aws4.resourceIcon;resIcon=mxgraph.aws4.sagemaker;" vertex="1" parent="GrOLrULoJyy6WH1Zk0m3-3">
          <mxGeometry x="49.75" y="30" width="59" height="59" as="geometry" />
        </mxCell>
        <mxCell id="GrOLrULoJyy6WH1Zk0m3-6" value="" style="outlineConnect=0;dashed=0;verticalLabelPosition=bottom;verticalAlign=top;align=center;html=1;shape=mxgraph.aws3.ec2;fillColor=#F58534;gradientColor=none;aspect=fixed;" vertex="1" parent="GrOLrULoJyy6WH1Zk0m3-3">
          <mxGeometry x="51.25" y="140" width="57.5" height="59.63" as="geometry" />
        </mxCell>
        <mxCell id="GrOLrULoJyy6WH1Zk0m3-7" value="Sagemaker" style="text;html=1;strokeColor=none;fillColor=none;align=center;verticalAlign=middle;whiteSpace=wrap;rounded=0;" vertex="1" parent="GrOLrULoJyy6WH1Zk0m3-3">
          <mxGeometry x="48.75" y="89" width="60" height="30" as="geometry" />
        </mxCell>
        <mxCell id="GrOLrULoJyy6WH1Zk0m3-8" value="EC2" style="text;html=1;strokeColor=none;fillColor=none;align=center;verticalAlign=middle;whiteSpace=wrap;rounded=0;" vertex="1" parent="GrOLrULoJyy6WH1Zk0m3-3">
          <mxGeometry x="49.25" y="199.63" width="60" height="30" as="geometry" />
        </mxCell>
        <mxCell id="GrOLrULoJyy6WH1Zk0m3-4" value="Public subnet" style="points=[[0,0],[0.25,0],[0.5,0],[0.75,0],[1,0],[1,0.25],[1,0.5],[1,0.75],[1,1],[0.75,1],[0.5,1],[0.25,1],[0,1],[0,0.75],[0,0.5],[0,0.25]];outlineConnect=0;gradientColor=none;html=1;whiteSpace=wrap;fontSize=12;fontStyle=0;container=1;pointerEvents=0;collapsible=0;recursiveResize=0;shape=mxgraph.aws4.group;grIcon=mxgraph.aws4.group_security_group;grStroke=0;strokeColor=#248814;fillColor=#E9F3E6;verticalAlign=top;align=left;spacingLeft=30;fontColor=#248814;dashed=0;" vertex="1" parent="GrOLrULoJyy6WH1Zk0m3-2">
          <mxGeometry x="30" y="290" width="160" height="200" as="geometry" />
        </mxCell>
        <mxCell id="GrOLrULoJyy6WH1Zk0m3-41" value="" style="endArrow=classic;html=1;rounded=0;dashed=1;" edge="1" parent="GrOLrULoJyy6WH1Zk0m3-2" source="GrOLrULoJyy6WH1Zk0m3-3" target="GrOLrULoJyy6WH1Zk0m3-4">
          <mxGeometry width="50" height="50" relative="1" as="geometry">
            <mxPoint x="250" y="260" as="sourcePoint" />
            <mxPoint x="300" y="210" as="targetPoint" />
          </mxGeometry>
        </mxCell>
        <mxCell id="GrOLrULoJyy6WH1Zk0m3-27" value="" style="edgeStyle=orthogonalEdgeStyle;rounded=0;orthogonalLoop=1;jettySize=auto;html=1;endArrow=none;" edge="1" parent="GrOLrULoJyy6WH1Zk0m3-95" source="GrOLrULoJyy6WH1Zk0m3-6" target="GrOLrULoJyy6WH1Zk0m3-26">
          <mxGeometry relative="1" as="geometry">
            <mxPoint x="218.75" y="269.79999999999995" as="sourcePoint" />
            <mxPoint x="455.5" y="370" as="targetPoint" />
            <Array as="points">
              <mxPoint x="300" y="270" />
              <mxPoint x="300" y="270" />
            </Array>
          </mxGeometry>
        </mxCell>
        <mxCell id="GrOLrULoJyy6WH1Zk0m3-42" value="Region" style="points=[[0,0],[0.25,0],[0.5,0],[0.75,0],[1,0],[1,0.25],[1,0.5],[1,0.75],[1,1],[0.75,1],[0.5,1],[0.25,1],[0,1],[0,0.75],[0,0.5],[0,0.25]];outlineConnect=0;gradientColor=none;html=1;whiteSpace=wrap;fontSize=12;fontStyle=0;container=1;pointerEvents=0;collapsible=0;recursiveResize=0;shape=mxgraph.aws4.group;grIcon=mxgraph.aws4.group_region;strokeColor=#147EBA;fillColor=none;verticalAlign=top;align=left;spacingLeft=30;fontColor=#147EBA;dashed=1;" vertex="1" parent="GrOLrULoJyy6WH1Zk0m3-95">
          <mxGeometry x="30" y="20" width="890" height="620" as="geometry" />
        </mxCell>
        <mxCell id="GrOLrULoJyy6WH1Zk0m3-23" value="" style="group" vertex="1" connectable="0" parent="GrOLrULoJyy6WH1Zk0m3-42">
          <mxGeometry x="330" width="91" height="90" as="geometry" />
        </mxCell>
        <mxCell id="GrOLrULoJyy6WH1Zk0m3-15" value="" style="sketch=0;points=[[0,0,0],[0.25,0,0],[0.5,0,0],[0.75,0,0],[1,0,0],[0,1,0],[0.25,1,0],[0.5,1,0],[0.75,1,0],[1,1,0],[0,0.25,0],[0,0.5,0],[0,0.75,0],[1,0.25,0],[1,0.5,0],[1,0.75,0]];outlineConnect=0;fontColor=#232F3E;gradientColor=#945DF2;gradientDirection=north;fillColor=#5A30B5;strokeColor=#ffffff;dashed=0;verticalLabelPosition=bottom;verticalAlign=top;align=center;html=1;fontSize=12;fontStyle=0;aspect=fixed;shape=mxgraph.aws4.resourceIcon;resIcon=mxgraph.aws4.quicksight;" vertex="1" parent="GrOLrULoJyy6WH1Zk0m3-23">
          <mxGeometry x="13.527027027027025" y="1.0500000000000007" width="63.945945945945944" height="63.945945945945944" as="geometry" />
        </mxCell>
        <mxCell id="GrOLrULoJyy6WH1Zk0m3-21" value="Quicksight" style="text;html=1;strokeColor=none;fillColor=none;align=center;verticalAlign=middle;whiteSpace=wrap;rounded=0;" vertex="1" parent="GrOLrULoJyy6WH1Zk0m3-23">
          <mxGeometry y="65" width="91" height="25" as="geometry" />
        </mxCell>
        <mxCell id="GrOLrULoJyy6WH1Zk0m3-43" value="Internet&#xa;gateway" style="sketch=0;outlineConnect=0;fontColor=#232F3E;gradientColor=none;strokeColor=#232F3E;fillColor=#ffffff;dashed=0;verticalLabelPosition=bottom;verticalAlign=top;align=center;html=1;fontSize=12;fontStyle=0;aspect=fixed;shape=mxgraph.aws4.resourceIcon;resIcon=mxgraph.aws4.internet_gateway;" vertex="1" parent="GrOLrULoJyy6WH1Zk0m3-42">
          <mxGeometry x="20" y="400" width="50" height="50" as="geometry" />
        </mxCell>
        <mxCell id="GrOLrULoJyy6WH1Zk0m3-61" value="" style="group" vertex="1" connectable="0" parent="GrOLrULoJyy6WH1Zk0m3-42">
          <mxGeometry x="510" y="320" width="60" height="90" as="geometry" />
        </mxCell>
        <mxCell id="GrOLrULoJyy6WH1Zk0m3-47" value="" style="sketch=0;points=[[0,0,0],[0.25,0,0],[0.5,0,0],[0.75,0,0],[1,0,0],[0,1,0],[0.25,1,0],[0.5,1,0],[0.75,1,0],[1,1,0],[0,0.25,0],[0,0.5,0],[0,0.75,0],[1,0.25,0],[1,0.5,0],[1,0.75,0]];outlineConnect=0;fontColor=#232F3E;gradientColor=#FF4F8B;gradientDirection=north;fillColor=#BC1356;strokeColor=#ffffff;dashed=0;verticalLabelPosition=bottom;verticalAlign=top;align=center;html=1;fontSize=12;fontStyle=0;aspect=fixed;shape=mxgraph.aws4.resourceIcon;resIcon=mxgraph.aws4.eventbridge;" vertex="1" parent="GrOLrULoJyy6WH1Zk0m3-61">
          <mxGeometry width="58" height="58" as="geometry" />
        </mxCell>
        <mxCell id="GrOLrULoJyy6WH1Zk0m3-60" value="Eventbridge" style="text;html=1;strokeColor=none;fillColor=none;align=center;verticalAlign=middle;whiteSpace=wrap;rounded=0;" vertex="1" parent="GrOLrULoJyy6WH1Zk0m3-61">
          <mxGeometry y="60" width="60" height="30" as="geometry" />
        </mxCell>
        <mxCell id="GrOLrULoJyy6WH1Zk0m3-18" value="" style="group" vertex="1" connectable="0" parent="GrOLrULoJyy6WH1Zk0m3-42">
          <mxGeometry x="350" y="498.89" width="91" height="80" as="geometry" />
        </mxCell>
        <mxCell id="GrOLrULoJyy6WH1Zk0m3-11" value="" style="sketch=0;points=[[0,0,0],[0.25,0,0],[0.5,0,0],[0.75,0,0],[1,0,0],[0,1,0],[0.25,1,0],[0.5,1,0],[0.75,1,0],[1,1,0],[0,0.25,0],[0,0.5,0],[0,0.75,0],[1,0.25,0],[1,0.5,0],[1,0.75,0]];outlineConnect=0;fontColor=#232F3E;gradientColor=#945DF2;gradientDirection=north;fillColor=#5A30B5;strokeColor=#ffffff;dashed=0;verticalLabelPosition=bottom;verticalAlign=top;align=center;html=1;fontSize=12;fontStyle=0;aspect=fixed;shape=mxgraph.aws4.resourceIcon;resIcon=mxgraph.aws4.kinesis_data_firehose;" vertex="1" parent="GrOLrULoJyy6WH1Zk0m3-18">
          <mxGeometry x="13.527027027027026" width="57.77777777777777" height="57.77777777777777" as="geometry" />
        </mxCell>
        <mxCell id="GrOLrULoJyy6WH1Zk0m3-12" value="Kinesis Firehose" style="text;html=1;strokeColor=none;fillColor=none;align=center;verticalAlign=middle;whiteSpace=wrap;rounded=0;" vertex="1" parent="GrOLrULoJyy6WH1Zk0m3-18">
          <mxGeometry y="57.77777777777777" width="91" height="22.22222222222222" as="geometry" />
        </mxCell>
        <mxCell id="GrOLrULoJyy6WH1Zk0m3-72" style="edgeStyle=orthogonalEdgeStyle;rounded=0;orthogonalLoop=1;jettySize=auto;html=1;" edge="1" parent="GrOLrULoJyy6WH1Zk0m3-42" source="GrOLrULoJyy6WH1Zk0m3-68" target="GrOLrULoJyy6WH1Zk0m3-16">
          <mxGeometry relative="1" as="geometry" />
        </mxCell>
        <mxCell id="GrOLrULoJyy6WH1Zk0m3-22" value="" style="group" vertex="1" connectable="0" parent="GrOLrULoJyy6WH1Zk0m3-42">
          <mxGeometry x="790" width="94.5" height="90" as="geometry" />
        </mxCell>
        <mxCell id="GrOLrULoJyy6WH1Zk0m3-16" value="Redshift" style="text;html=1;strokeColor=none;fillColor=none;align=center;verticalAlign=middle;whiteSpace=wrap;rounded=0;" vertex="1" parent="GrOLrULoJyy6WH1Zk0m3-22">
          <mxGeometry y="65" width="94.5" height="25" as="geometry" />
        </mxCell>
        <mxCell id="GrOLrULoJyy6WH1Zk0m3-17" value="" style="sketch=0;points=[[0,0,0],[0.25,0,0],[0.5,0,0],[0.75,0,0],[1,0,0],[0,1,0],[0.25,1,0],[0.5,1,0],[0.75,1,0],[1,1,0],[0,0.25,0],[0,0.5,0],[0,0.75,0],[1,0.25,0],[1,0.5,0],[1,0.75,0]];outlineConnect=0;fontColor=#232F3E;gradientColor=#945DF2;gradientDirection=north;fillColor=#5A30B5;strokeColor=#ffffff;dashed=0;verticalLabelPosition=bottom;verticalAlign=top;align=center;html=1;fontSize=12;fontStyle=0;aspect=fixed;shape=mxgraph.aws4.resourceIcon;resIcon=mxgraph.aws4.redshift;" vertex="1" parent="GrOLrULoJyy6WH1Zk0m3-22">
          <mxGeometry x="14.047297297297296" width="65" height="65" as="geometry" />
        </mxCell>
        <mxCell id="GrOLrULoJyy6WH1Zk0m3-70" value="" style="group" vertex="1" connectable="0" parent="GrOLrULoJyy6WH1Zk0m3-42">
          <mxGeometry x="810" y="210" width="60" height="84.5" as="geometry" />
        </mxCell>
        <mxCell id="GrOLrULoJyy6WH1Zk0m3-68" value="" style="sketch=0;points=[[0,0,0],[0.25,0,0],[0.5,0,0],[0.75,0,0],[1,0,0],[0,1,0],[0.25,1,0],[0.5,1,0],[0.75,1,0],[1,1,0],[0,0.25,0],[0,0.5,0],[0,0.75,0],[1,0.25,0],[1,0.5,0],[1,0.75,0]];outlineConnect=0;fontColor=#232F3E;gradientColor=#945DF2;gradientDirection=north;fillColor=#5A30B5;strokeColor=#ffffff;dashed=0;verticalLabelPosition=bottom;verticalAlign=top;align=center;html=1;fontSize=12;fontStyle=0;aspect=fixed;shape=mxgraph.aws4.resourceIcon;resIcon=mxgraph.aws4.glue;" vertex="1" parent="GrOLrULoJyy6WH1Zk0m3-70">
          <mxGeometry width="54.5" height="54.5" as="geometry" />
        </mxCell>
        <mxCell id="GrOLrULoJyy6WH1Zk0m3-69" value="Glue Job" style="text;html=1;strokeColor=none;fillColor=none;align=center;verticalAlign=middle;whiteSpace=wrap;rounded=0;" vertex="1" parent="GrOLrULoJyy6WH1Zk0m3-70">
          <mxGeometry y="54.5" width="60" height="30" as="geometry" />
        </mxCell>
        <mxCell id="GrOLrULoJyy6WH1Zk0m3-19" value="" style="group" vertex="1" connectable="0" parent="GrOLrULoJyy6WH1Zk0m3-42">
          <mxGeometry x="797.75" y="498.89" width="84.5" height="80" as="geometry" />
        </mxCell>
        <mxCell id="GrOLrULoJyy6WH1Zk0m3-13" value="S3 Raw" style="text;html=1;strokeColor=none;fillColor=none;align=center;verticalAlign=middle;whiteSpace=wrap;rounded=0;" vertex="1" parent="GrOLrULoJyy6WH1Zk0m3-19">
          <mxGeometry y="57.77777777777777" width="84.5" height="22.22222222222222" as="geometry" />
        </mxCell>
        <mxCell id="GrOLrULoJyy6WH1Zk0m3-10" value="" style="sketch=0;points=[[0,0,0],[0.25,0,0],[0.5,0,0],[0.75,0,0],[1,0,0],[0,1,0],[0.25,1,0],[0.5,1,0],[0.75,1,0],[1,1,0],[0,0.25,0],[0,0.5,0],[0,0.75,0],[1,0.25,0],[1,0.5,0],[1,0.75,0]];outlineConnect=0;fontColor=#232F3E;gradientColor=#60A337;gradientDirection=north;fillColor=#277116;strokeColor=#ffffff;dashed=0;verticalLabelPosition=bottom;verticalAlign=top;align=center;html=1;fontSize=12;fontStyle=0;aspect=fixed;shape=mxgraph.aws4.resourceIcon;resIcon=mxgraph.aws4.s3;" vertex="1" parent="GrOLrULoJyy6WH1Zk0m3-19">
          <mxGeometry x="13.36081081081079" width="57.77777777777777" height="57.77777777777777" as="geometry" />
        </mxCell>
        <mxCell id="GrOLrULoJyy6WH1Zk0m3-76" style="edgeStyle=orthogonalEdgeStyle;rounded=0;orthogonalLoop=1;jettySize=auto;html=1;" edge="1" parent="GrOLrULoJyy6WH1Zk0m3-42" source="GrOLrULoJyy6WH1Zk0m3-11" target="GrOLrULoJyy6WH1Zk0m3-10">
          <mxGeometry relative="1" as="geometry" />
        </mxCell>
        <mxCell id="GrOLrULoJyy6WH1Zk0m3-77" style="edgeStyle=orthogonalEdgeStyle;rounded=0;orthogonalLoop=1;jettySize=auto;html=1;" edge="1" parent="GrOLrULoJyy6WH1Zk0m3-42" source="GrOLrULoJyy6WH1Zk0m3-10" target="GrOLrULoJyy6WH1Zk0m3-55">
          <mxGeometry relative="1" as="geometry" />
        </mxCell>
        <mxCell id="GrOLrULoJyy6WH1Zk0m3-52" value="" style="group" vertex="1" connectable="0" parent="GrOLrULoJyy6WH1Zk0m3-42">
          <mxGeometry x="660" y="410" width="76.5" height="90" as="geometry" />
        </mxCell>
        <mxCell id="GrOLrULoJyy6WH1Zk0m3-45" value="" style="outlineConnect=0;dashed=0;verticalLabelPosition=bottom;verticalAlign=top;align=center;html=1;shape=mxgraph.aws3.lambda_function;fillColor=#F58534;gradientColor=none;aspect=fixed;" vertex="1" parent="GrOLrULoJyy6WH1Zk0m3-52">
          <mxGeometry x="13.75" width="49" height="51.13" as="geometry" />
        </mxCell>
        <mxCell id="GrOLrULoJyy6WH1Zk0m3-50" value="Lambda (Crawler trigger)" style="text;html=1;strokeColor=none;fillColor=none;align=center;verticalAlign=middle;whiteSpace=wrap;rounded=0;" vertex="1" parent="GrOLrULoJyy6WH1Zk0m3-52">
          <mxGeometry y="60" width="76.5" height="30" as="geometry" />
        </mxCell>
        <mxCell id="GrOLrULoJyy6WH1Zk0m3-78" style="edgeStyle=orthogonalEdgeStyle;rounded=0;orthogonalLoop=1;jettySize=auto;html=1;dashed=1;" edge="1" parent="GrOLrULoJyy6WH1Zk0m3-42" source="GrOLrULoJyy6WH1Zk0m3-45" target="GrOLrULoJyy6WH1Zk0m3-49">
          <mxGeometry relative="1" as="geometry" />
        </mxCell>
        <mxCell id="GrOLrULoJyy6WH1Zk0m3-58" value="" style="group" vertex="1" connectable="0" parent="GrOLrULoJyy6WH1Zk0m3-42">
          <mxGeometry x="810" y="360" width="60" height="90" as="geometry" />
        </mxCell>
        <mxCell id="GrOLrULoJyy6WH1Zk0m3-49" value="" style="sketch=0;outlineConnect=0;fontColor=#232F3E;gradientColor=none;fillColor=#4D27AA;strokeColor=none;dashed=0;verticalLabelPosition=bottom;verticalAlign=top;align=center;html=1;fontSize=12;fontStyle=0;aspect=fixed;pointerEvents=1;shape=mxgraph.aws4.glue_crawlers;" vertex="1" parent="GrOLrULoJyy6WH1Zk0m3-58">
          <mxGeometry width="54" height="54" as="geometry" />
        </mxCell>
        <mxCell id="GrOLrULoJyy6WH1Zk0m3-55" value="Glue Crawler" style="text;html=1;strokeColor=none;fillColor=none;align=center;verticalAlign=middle;whiteSpace=wrap;rounded=0;" vertex="1" parent="GrOLrULoJyy6WH1Zk0m3-58">
          <mxGeometry y="60" width="60" height="30" as="geometry" />
        </mxCell>
        <mxCell id="GrOLrULoJyy6WH1Zk0m3-64" value="" style="group" vertex="1" connectable="0" parent="GrOLrULoJyy6WH1Zk0m3-42">
          <mxGeometry x="668.25" y="210" width="60" height="91.13" as="geometry" />
        </mxCell>
        <mxCell id="GrOLrULoJyy6WH1Zk0m3-46" value="" style="outlineConnect=0;dashed=0;verticalLabelPosition=bottom;verticalAlign=top;align=center;html=1;shape=mxgraph.aws3.lambda_function;fillColor=#F58534;gradientColor=none;aspect=fixed;" vertex="1" parent="GrOLrULoJyy6WH1Zk0m3-64">
          <mxGeometry x="5.5" width="49" height="51.13" as="geometry" />
        </mxCell>
        <mxCell id="GrOLrULoJyy6WH1Zk0m3-63" value="Lambda (Glue job trigger)" style="text;html=1;strokeColor=none;fillColor=none;align=center;verticalAlign=middle;whiteSpace=wrap;rounded=0;" vertex="1" parent="GrOLrULoJyy6WH1Zk0m3-64">
          <mxGeometry y="61.129999999999995" width="60" height="30" as="geometry" />
        </mxCell>
        <mxCell id="GrOLrULoJyy6WH1Zk0m3-81" style="edgeStyle=orthogonalEdgeStyle;rounded=0;orthogonalLoop=1;jettySize=auto;html=1;entryX=0;entryY=0.5;entryDx=0;entryDy=0;entryPerimeter=0;dashed=1;" edge="1" parent="GrOLrULoJyy6WH1Zk0m3-42" source="GrOLrULoJyy6WH1Zk0m3-46" target="GrOLrULoJyy6WH1Zk0m3-68">
          <mxGeometry relative="1" as="geometry">
            <Array as="points">
              <mxPoint x="690" y="237" />
            </Array>
          </mxGeometry>
        </mxCell>
        <mxCell id="GrOLrULoJyy6WH1Zk0m3-86" style="edgeStyle=orthogonalEdgeStyle;rounded=0;orthogonalLoop=1;jettySize=auto;html=1;entryX=0.5;entryY=1;entryDx=0;entryDy=0;" edge="1" parent="GrOLrULoJyy6WH1Zk0m3-42" source="GrOLrULoJyy6WH1Zk0m3-49" target="GrOLrULoJyy6WH1Zk0m3-69">
          <mxGeometry relative="1" as="geometry" />
        </mxCell>
        <mxCell id="GrOLrULoJyy6WH1Zk0m3-20" value="" style="group" vertex="1" connectable="0" parent="GrOLrULoJyy6WH1Zk0m3-42">
          <mxGeometry x="564.5" y="100" width="95.5" height="90" as="geometry" />
        </mxCell>
        <mxCell id="GrOLrULoJyy6WH1Zk0m3-9" value="" style="sketch=0;points=[[0,0,0],[0.25,0,0],[0.5,0,0],[0.75,0,0],[1,0,0],[0,1,0],[0.25,1,0],[0.5,1,0],[0.75,1,0],[1,1,0],[0,0.25,0],[0,0.5,0],[0,0.75,0],[1,0.25,0],[1,0.5,0],[1,0.75,0]];outlineConnect=0;fontColor=#232F3E;gradientColor=#60A337;gradientDirection=north;fillColor=#277116;strokeColor=#ffffff;dashed=0;verticalLabelPosition=bottom;verticalAlign=top;align=center;html=1;fontSize=12;fontStyle=0;aspect=fixed;shape=mxgraph.aws4.resourceIcon;resIcon=mxgraph.aws4.s3;" vertex="1" parent="GrOLrULoJyy6WH1Zk0m3-20">
          <mxGeometry x="15.245945945945946" y="7" width="65" height="65" as="geometry" />
        </mxCell>
        <mxCell id="GrOLrULoJyy6WH1Zk0m3-14" value="&lt;br&gt;S3 Processed" style="text;html=1;strokeColor=none;fillColor=none;align=center;verticalAlign=middle;whiteSpace=wrap;rounded=0;" vertex="1" parent="GrOLrULoJyy6WH1Zk0m3-20">
          <mxGeometry y="65" width="95.5" height="25" as="geometry" />
        </mxCell>
        <mxCell id="GrOLrULoJyy6WH1Zk0m3-88" style="edgeStyle=orthogonalEdgeStyle;rounded=0;orthogonalLoop=1;jettySize=auto;html=1;entryX=0.5;entryY=0;entryDx=0;entryDy=0;entryPerimeter=0;" edge="1" parent="GrOLrULoJyy6WH1Zk0m3-42" source="GrOLrULoJyy6WH1Zk0m3-17" target="GrOLrULoJyy6WH1Zk0m3-9">
          <mxGeometry relative="1" as="geometry" />
        </mxCell>
        <mxCell id="GrOLrULoJyy6WH1Zk0m3-91" style="edgeStyle=orthogonalEdgeStyle;rounded=0;orthogonalLoop=1;jettySize=auto;html=1;" edge="1" parent="GrOLrULoJyy6WH1Zk0m3-42" source="GrOLrULoJyy6WH1Zk0m3-9" target="GrOLrULoJyy6WH1Zk0m3-21">
          <mxGeometry relative="1" as="geometry" />
        </mxCell>
        <mxCell id="GrOLrULoJyy6WH1Zk0m3-92" style="edgeStyle=orthogonalEdgeStyle;rounded=0;orthogonalLoop=1;jettySize=auto;html=1;dashed=1;" edge="1" parent="GrOLrULoJyy6WH1Zk0m3-42" source="GrOLrULoJyy6WH1Zk0m3-47" target="GrOLrULoJyy6WH1Zk0m3-49">
          <mxGeometry relative="1" as="geometry">
            <Array as="points">
              <mxPoint x="600" y="360" />
              <mxPoint x="600" y="360" />
            </Array>
          </mxGeometry>
        </mxCell>
        <mxCell id="GrOLrULoJyy6WH1Zk0m3-93" style="edgeStyle=orthogonalEdgeStyle;rounded=0;orthogonalLoop=1;jettySize=auto;html=1;dashed=1;" edge="1" parent="GrOLrULoJyy6WH1Zk0m3-42" source="GrOLrULoJyy6WH1Zk0m3-47" target="GrOLrULoJyy6WH1Zk0m3-46">
          <mxGeometry relative="1" as="geometry">
            <Array as="points">
              <mxPoint x="539" y="240" />
            </Array>
          </mxGeometry>
        </mxCell>
        <mxCell id="GrOLrULoJyy6WH1Zk0m3-40" value="NAT gateway" style="sketch=0;outlineConnect=0;fontColor=#232F3E;gradientColor=none;strokeColor=#232F3E;fillColor=#ffffff;dashed=0;verticalLabelPosition=bottom;verticalAlign=top;align=center;html=1;fontSize=12;fontStyle=0;aspect=fixed;shape=mxgraph.aws4.resourceIcon;resIcon=mxgraph.aws4.nat_gateway;" vertex="1" parent="GrOLrULoJyy6WH1Zk0m3-42">
          <mxGeometry x="180" y="450" width="40" height="40" as="geometry" />
        </mxCell>
        <mxCell id="GrOLrULoJyy6WH1Zk0m3-97" value="" style="endArrow=classic;html=1;rounded=0;dashed=1;" edge="1" parent="GrOLrULoJyy6WH1Zk0m3-42" source="GrOLrULoJyy6WH1Zk0m3-10" target="GrOLrULoJyy6WH1Zk0m3-45">
          <mxGeometry width="50" height="50" relative="1" as="geometry">
            <mxPoint x="741" y="506" as="sourcePoint" />
            <mxPoint x="791" y="456" as="targetPoint" />
          </mxGeometry>
        </mxCell>
        <mxCell id="GrOLrULoJyy6WH1Zk0m3-75" style="edgeStyle=orthogonalEdgeStyle;rounded=0;orthogonalLoop=1;jettySize=auto;html=1;" edge="1" parent="GrOLrULoJyy6WH1Zk0m3-95" source="GrOLrULoJyy6WH1Zk0m3-26" target="GrOLrULoJyy6WH1Zk0m3-11">
          <mxGeometry relative="1" as="geometry" />
        </mxCell>
        <mxCell id="GrOLrULoJyy6WH1Zk0m3-89" style="edgeStyle=orthogonalEdgeStyle;rounded=0;orthogonalLoop=1;jettySize=auto;html=1;" edge="1" parent="GrOLrULoJyy6WH1Zk0m3-95" source="GrOLrULoJyy6WH1Zk0m3-9" target="GrOLrULoJyy6WH1Zk0m3-5">
          <mxGeometry relative="1" as="geometry" />
        </mxCell>
        <mxCell id="GrOLrULoJyy6WH1Zk0m3-90" style="edgeStyle=orthogonalEdgeStyle;rounded=0;orthogonalLoop=1;jettySize=auto;html=1;entryX=0;entryY=0.5;entryDx=0;entryDy=0;entryPerimeter=0;" edge="1" parent="GrOLrULoJyy6WH1Zk0m3-95" source="GrOLrULoJyy6WH1Zk0m3-5" target="GrOLrULoJyy6WH1Zk0m3-9">
          <mxGeometry relative="1" as="geometry" />
        </mxCell>
      </root>
    </mxGraphModel>
  </diagram>
</mxfile>
